# xmcd CD database file
#
# Track frame offsets:
#	150
#	19350
#	33432
#	74861
#	86965
#	100325
#	111097
#	125310
#	140723
#	155352
#	179202
#	202434
#
# Disc length: 2889 seconds
#
# Revision: 0
# Processed by: cddbd v1.5.2PL0 Copyright (c) Steve Scherf et al.
# Submitted via: CDex 1.77
#
DISCID=c20b470c
DTITLE=Bayou Moonshiners (Ghizzoni - Lazzarin) - Livin' live
DYEAR=2016
DGENRE=Blues
TTITLE0=cabbage head
TTITLE1=big time woman
TTITLE2=just a closer Walk with thee_didn't he ramble
TTITLE3=i just can't get new orleans off my mind
TTITLE4=me myself  and i
TTITLE5=don't believe me
TTITLE6=my indian Red
TTITLE7=tell me more
TTITLE8=jambalaya
TTITLE9=i'm glad salvation is free
TTITLE10=amazing grace
TTITLE11=down by the riverside
EXTD=YEAR: 2016
EXTT0=
EXTT1=
EXTT2=
EXTT3=
EXTT4=
EXTT5=
EXTT6=
EXTT7=
EXTT8=
EXTT9=
EXTT10=
EXTT11=
PLAYORDER=
